<mxfile host="app.diagrams.net" modified="2023-11-03T12:54:24.488Z" agent="Mozilla/5.0 (Windows NT 10.0; Win64; x64) AppleWebKit/537.36 (KHTML, like Gecko) Chrome/118.0.0.0 Safari/537.36 Edg/118.0.2088.76" etag="EguL52AgQtAQfVOSS72K" version="22.0.8" type="github" pages="5">
  <diagram name="Page-1" id="pp-NiHuE6Q0v9ZnyZoWW">
    <mxGraphModel dx="1631" dy="2053" grid="1" gridSize="10" guides="1" tooltips="1" connect="1" arrows="1" fold="1" page="1" pageScale="1" pageWidth="827" pageHeight="1169" math="0" shadow="0">
      <root>
        <mxCell id="0" />
        <mxCell id="1" parent="0" />
        <mxCell id="R4MgnWe8AKQlbUeH1rV9-35" value="" style="rounded=0;whiteSpace=wrap;html=1;" vertex="1" parent="1">
          <mxGeometry x="380" width="260" height="710" as="geometry" />
        </mxCell>
        <mxCell id="R4MgnWe8AKQlbUeH1rV9-31" value="" style="rounded=0;whiteSpace=wrap;html=1;" vertex="1" parent="1">
          <mxGeometry x="45" width="335" height="710" as="geometry" />
        </mxCell>
        <mxCell id="R4MgnWe8AKQlbUeH1rV9-1" value="Injury/Illness" style="rounded=1;whiteSpace=wrap;html=1;fontFamily=Comic Sans MS;fillColor=#f5f5f5;strokeColor=#666666;fontColor=#333333;" vertex="1" parent="1">
          <mxGeometry x="433" y="452" width="150" height="90" as="geometry" />
        </mxCell>
        <mxCell id="R4MgnWe8AKQlbUeH1rV9-2" value="OII Monthly KPI" style="rounded=1;whiteSpace=wrap;html=1;fontFamily=Comic Sans MS;fillColor=#f5f5f5;strokeColor=#666666;fontColor=#333333;" vertex="1" parent="1">
          <mxGeometry x="433" y="10" width="150" height="90" as="geometry" />
        </mxCell>
        <mxCell id="R4MgnWe8AKQlbUeH1rV9-3" value="OII by Month" style="rounded=1;whiteSpace=wrap;html=1;fontFamily=Comic Sans MS;fillColor=#f5f5f5;strokeColor=#666666;fontColor=#333333;" vertex="1" parent="1">
          <mxGeometry x="120" y="110" width="150" height="90" as="geometry" />
        </mxCell>
        <mxCell id="R4MgnWe8AKQlbUeH1rV9-4" value="OII by Day" style="rounded=1;whiteSpace=wrap;html=1;fontFamily=Comic Sans MS;fillColor=#f5f5f5;strokeColor=#666666;fontColor=#333333;" vertex="1" parent="1">
          <mxGeometry x="120" y="332" width="150" height="100" as="geometry" />
        </mxCell>
        <mxCell id="R4MgnWe8AKQlbUeH1rV9-6" value="&lt;font face=&quot;Comic Sans MS&quot;&gt;Days Away per Record&lt;br&gt;&lt;/font&gt;" style="shape=flexArrow;endArrow=classic;html=1;rounded=0;exitX=0;exitY=0.5;exitDx=0;exitDy=0;entryX=0.5;entryY=1;entryDx=0;entryDy=0;fillColor=#ffe6cc;strokeColor=#d79b00;" edge="1" parent="1" source="R4MgnWe8AKQlbUeH1rV9-12" target="R4MgnWe8AKQlbUeH1rV9-11">
          <mxGeometry width="50" height="50" relative="1" as="geometry">
            <mxPoint x="360" y="500" as="sourcePoint" />
            <mxPoint x="200" y="450" as="targetPoint" />
            <Array as="points">
              <mxPoint x="195" y="500" />
            </Array>
          </mxGeometry>
        </mxCell>
        <mxCell id="R4MgnWe8AKQlbUeH1rV9-7" value="Days Away per Day" style="shape=flexArrow;endArrow=classic;html=1;rounded=0;fontFamily=Comic Sans MS;exitX=0.5;exitY=0;exitDx=0;exitDy=0;fillColor=#ffe6cc;strokeColor=#d79b00;" edge="1" parent="1" source="R4MgnWe8AKQlbUeH1rV9-14">
          <mxGeometry width="50" height="50" relative="1" as="geometry">
            <mxPoint x="200" y="290" as="sourcePoint" />
            <mxPoint x="190" y="220" as="targetPoint" />
          </mxGeometry>
        </mxCell>
        <mxCell id="R4MgnWe8AKQlbUeH1rV9-8" value="Days Away per Month" style="shape=flexArrow;endArrow=classic;html=1;rounded=0;fontFamily=Comic Sans MS;exitX=0.5;exitY=0;exitDx=0;exitDy=0;entryX=0;entryY=0.5;entryDx=0;entryDy=0;fillColor=#ffe6cc;strokeColor=#d79b00;" edge="1" parent="1" source="R4MgnWe8AKQlbUeH1rV9-17" target="R4MgnWe8AKQlbUeH1rV9-16">
          <mxGeometry width="50" height="50" relative="1" as="geometry">
            <mxPoint x="190" y="75" as="sourcePoint" />
            <mxPoint x="390" y="70" as="targetPoint" />
            <Array as="points">
              <mxPoint x="190" y="55" />
            </Array>
          </mxGeometry>
        </mxCell>
        <mxCell id="R4MgnWe8AKQlbUeH1rV9-9" value="" style="shape=flexArrow;endArrow=classic;startArrow=classic;html=1;rounded=0;entryX=0.5;entryY=1;entryDx=0;entryDy=0;exitX=0.5;exitY=0;exitDx=0;exitDy=0;fillColor=#ffe6cc;strokeColor=#d79b00;" edge="1" parent="1" source="R4MgnWe8AKQlbUeH1rV9-21" target="R4MgnWe8AKQlbUeH1rV9-22">
          <mxGeometry width="100" height="100" relative="1" as="geometry">
            <mxPoint x="510" y="430" as="sourcePoint" />
            <mxPoint x="508" y="120" as="targetPoint" />
          </mxGeometry>
        </mxCell>
        <mxCell id="R4MgnWe8AKQlbUeH1rV9-24" value="&lt;font face=&quot;Comic Sans MS&quot;&gt;Relational fields&lt;br&gt;&lt;/font&gt;" style="edgeLabel;html=1;align=center;verticalAlign=middle;resizable=0;points=[];" vertex="1" connectable="0" parent="R4MgnWe8AKQlbUeH1rV9-9">
          <mxGeometry x="0.0385" y="-6" relative="1" as="geometry">
            <mxPoint as="offset" />
          </mxGeometry>
        </mxCell>
        <mxCell id="R4MgnWe8AKQlbUeH1rV9-10" value="Days Away objects only possess Days Away Data. This data is stored in another object so that Days Away added to a Injury/Illness record do not necessarily belong to the month of the incident." style="text;html=1;strokeColor=none;fillColor=none;align=center;verticalAlign=middle;whiteSpace=wrap;rounded=0;" vertex="1" parent="1">
          <mxGeometry x="45" y="560" width="335" height="60" as="geometry" />
        </mxCell>
        <mxCell id="R4MgnWe8AKQlbUeH1rV9-11" value="&lt;font face=&quot;Comic Sans MS&quot;&gt;Many&lt;/font&gt;" style="ellipse;whiteSpace=wrap;html=1;fillColor=#ffe6cc;strokeColor=#d79b00;" vertex="1" parent="1">
          <mxGeometry x="165" y="432" width="60" height="20" as="geometry" />
        </mxCell>
        <mxCell id="R4MgnWe8AKQlbUeH1rV9-12" value="&lt;font face=&quot;Comic Sans MS&quot;&gt;One&lt;/font&gt;" style="ellipse;whiteSpace=wrap;html=1;fillColor=#ffe6cc;strokeColor=#d79b00;" vertex="1" parent="1">
          <mxGeometry x="373" y="487" width="60" height="20" as="geometry" />
        </mxCell>
        <mxCell id="R4MgnWe8AKQlbUeH1rV9-14" value="&lt;font face=&quot;Comic Sans MS&quot;&gt;Many&lt;/font&gt;" style="ellipse;whiteSpace=wrap;html=1;fillColor=#ffe6cc;strokeColor=#d79b00;" vertex="1" parent="1">
          <mxGeometry x="160" y="312" width="60" height="20" as="geometry" />
        </mxCell>
        <mxCell id="R4MgnWe8AKQlbUeH1rV9-15" value="&lt;font face=&quot;Comic Sans MS&quot;&gt;One&lt;/font&gt;" style="ellipse;whiteSpace=wrap;html=1;fillColor=#ffe6cc;strokeColor=#d79b00;" vertex="1" parent="1">
          <mxGeometry x="160" y="200" width="60" height="20" as="geometry" />
        </mxCell>
        <mxCell id="R4MgnWe8AKQlbUeH1rV9-16" value="&lt;font face=&quot;Comic Sans MS&quot;&gt;One&lt;/font&gt;" style="ellipse;whiteSpace=wrap;html=1;fillColor=#ffe6cc;strokeColor=#d79b00;" vertex="1" parent="1">
          <mxGeometry x="376" y="45" width="57" height="20" as="geometry" />
        </mxCell>
        <mxCell id="R4MgnWe8AKQlbUeH1rV9-17" value="&lt;font face=&quot;Comic Sans MS&quot;&gt;One&lt;/font&gt;" style="ellipse;whiteSpace=wrap;html=1;fillColor=#ffe6cc;strokeColor=#d79b00;" vertex="1" parent="1">
          <mxGeometry x="160" y="90" width="60" height="20" as="geometry" />
        </mxCell>
        <mxCell id="R4MgnWe8AKQlbUeH1rV9-21" value="&lt;font face=&quot;Comic Sans MS&quot;&gt;Many&lt;br&gt;&lt;/font&gt;" style="ellipse;whiteSpace=wrap;html=1;fillColor=#ffe6cc;strokeColor=#d79b00;" vertex="1" parent="1">
          <mxGeometry x="478" y="432" width="60" height="20" as="geometry" />
        </mxCell>
        <mxCell id="R4MgnWe8AKQlbUeH1rV9-22" value="&lt;font face=&quot;Comic Sans MS&quot;&gt;One&lt;/font&gt;" style="ellipse;whiteSpace=wrap;html=1;fillColor=#ffe6cc;strokeColor=#d79b00;" vertex="1" parent="1">
          <mxGeometry x="478" y="100" width="60" height="20" as="geometry" />
        </mxCell>
        <mxCell id="R4MgnWe8AKQlbUeH1rV9-25" value="&lt;font face=&quot;Comic Sans MS&quot;&gt;Child: Parent&amp;nbsp;&lt;/font&gt;" style="endArrow=none;dashed=1;html=1;rounded=0;exitX=1;exitY=0.5;exitDx=0;exitDy=0;entryX=0;entryY=0.5;entryDx=0;entryDy=0;shape=arrow;fillColor=#fff2cc;strokeColor=#d6b656;" edge="1" parent="1" source="R4MgnWe8AKQlbUeH1rV9-1" target="R4MgnWe8AKQlbUeH1rV9-26">
          <mxGeometry width="50" height="50" relative="1" as="geometry">
            <mxPoint x="390" y="380" as="sourcePoint" />
            <mxPoint x="650" y="497" as="targetPoint" />
          </mxGeometry>
        </mxCell>
        <mxCell id="R4MgnWe8AKQlbUeH1rV9-26" value="SK Event" style="rounded=1;whiteSpace=wrap;html=1;fontFamily=Comic Sans MS;fillColor=#f5f5f5;strokeColor=#666666;fontColor=#333333;" vertex="1" parent="1">
          <mxGeometry x="677" y="452" width="150" height="90" as="geometry" />
        </mxCell>
        <mxCell id="R4MgnWe8AKQlbUeH1rV9-27" value="&lt;font face=&quot;Comic Sans MS&quot;&gt;HFM Hours Worked&lt;/font&gt;" style="shape=parallelogram;perimeter=parallelogramPerimeter;whiteSpace=wrap;html=1;fixedSize=1;fillColor=#e1d5e7;strokeColor=#9673a6;" vertex="1" parent="1">
          <mxGeometry x="270" y="-70" width="168" height="60" as="geometry" />
        </mxCell>
        <mxCell id="R4MgnWe8AKQlbUeH1rV9-28" value="" style="endArrow=classic;html=1;rounded=0;exitX=1;exitY=0.5;exitDx=0;exitDy=0;entryX=0.5;entryY=0;entryDx=0;entryDy=0;" edge="1" parent="1" source="R4MgnWe8AKQlbUeH1rV9-27" target="R4MgnWe8AKQlbUeH1rV9-2">
          <mxGeometry width="50" height="50" relative="1" as="geometry">
            <mxPoint x="390" y="30" as="sourcePoint" />
            <mxPoint x="440" y="-20" as="targetPoint" />
            <Array as="points">
              <mxPoint x="510" y="-40" />
            </Array>
          </mxGeometry>
        </mxCell>
        <mxCell id="R4MgnWe8AKQlbUeH1rV9-29" value="&lt;font face=&quot;Comic Sans MS&quot;&gt;Import&lt;/font&gt;" style="edgeLabel;html=1;align=center;verticalAlign=middle;resizable=0;points=[];" vertex="1" connectable="0" parent="R4MgnWe8AKQlbUeH1rV9-28">
          <mxGeometry x="-0.1714" y="2" relative="1" as="geometry">
            <mxPoint as="offset" />
          </mxGeometry>
        </mxCell>
        <mxCell id="R4MgnWe8AKQlbUeH1rV9-33" value="From the OII Monthly KPI perspective, the days away are no longer linked to the Injury/Illness record." style="ellipse;whiteSpace=wrap;html=1;fontFamily=Comic Sans MS;fillColor=#f8cecc;strokeColor=#b85450;shadow=0;" vertex="1" parent="1">
          <mxGeometry x="45" y="630" width="335" height="80" as="geometry" />
        </mxCell>
        <mxCell id="R4MgnWe8AKQlbUeH1rV9-34" value="Due to the Many-to-One relationship between OII Monthly KPI and Injury/Illness. Combining data between objects is susceptible for cross-multiplication." style="ellipse;whiteSpace=wrap;html=1;fontFamily=Comic Sans MS;fillColor=#f8cecc;strokeColor=#b85450;" vertex="1" parent="1">
          <mxGeometry x="400" y="560" width="229.5" height="150" as="geometry" />
        </mxCell>
        <mxCell id="R4MgnWe8AKQlbUeH1rV9-36" value="&lt;font face=&quot;Comic Sans MS&quot;&gt;KOR TRIR Report / Dashboard&lt;/font&gt;" style="shape=document;whiteSpace=wrap;html=1;boundedLbl=1;fillColor=#d5e8d4;strokeColor=#82b366;" vertex="1" parent="1">
          <mxGeometry x="677" y="10" width="122" height="90" as="geometry" />
        </mxCell>
        <mxCell id="R4MgnWe8AKQlbUeH1rV9-37" value="" style="endArrow=classic;html=1;rounded=0;entryX=0;entryY=0.5;entryDx=0;entryDy=0;exitX=1;exitY=0.5;exitDx=0;exitDy=0;shape=link;fillColor=#d5e8d4;strokeColor=#82b366;" edge="1" parent="1" source="R4MgnWe8AKQlbUeH1rV9-2" target="R4MgnWe8AKQlbUeH1rV9-36">
          <mxGeometry width="50" height="50" relative="1" as="geometry">
            <mxPoint x="590" y="60" as="sourcePoint" />
            <mxPoint x="640" y="10" as="targetPoint" />
          </mxGeometry>
        </mxCell>
      </root>
    </mxGraphModel>
  </diagram>
  <diagram id="Yzb0cJEVYBnUXUPnMFak" name="Page-2">
    <mxGraphModel dx="1386" dy="751" grid="1" gridSize="10" guides="1" tooltips="1" connect="1" arrows="1" fold="1" page="1" pageScale="1" pageWidth="827" pageHeight="1169" math="0" shadow="0">
      <root>
        <mxCell id="0" />
        <mxCell id="1" parent="0" />
        <mxCell id="KwvRrebOSRmyI-O3tbyF-3" value="Injury/Illness" style="rounded=1;whiteSpace=wrap;html=1;fontFamily=Comic Sans MS;fillColor=#f5f5f5;strokeColor=#666666;fontColor=#333333;" vertex="1" parent="1">
          <mxGeometry x="433" y="452" width="150" height="90" as="geometry" />
        </mxCell>
        <mxCell id="KwvRrebOSRmyI-O3tbyF-21" value="&lt;font face=&quot;Comic Sans MS&quot;&gt;Child: Parent&amp;nbsp;&lt;/font&gt;" style="endArrow=none;dashed=1;html=1;rounded=0;exitX=1;exitY=0.5;exitDx=0;exitDy=0;entryX=0;entryY=0.5;entryDx=0;entryDy=0;shape=arrow;fillColor=#fff2cc;strokeColor=#d6b656;" edge="1" parent="1" source="KwvRrebOSRmyI-O3tbyF-3" target="KwvRrebOSRmyI-O3tbyF-22">
          <mxGeometry width="50" height="50" relative="1" as="geometry">
            <mxPoint x="390" y="380" as="sourcePoint" />
            <mxPoint x="650" y="497" as="targetPoint" />
          </mxGeometry>
        </mxCell>
        <mxCell id="KwvRrebOSRmyI-O3tbyF-22" value="SK Event" style="rounded=1;whiteSpace=wrap;html=1;fontFamily=Comic Sans MS;fillColor=#f5f5f5;strokeColor=#666666;fontColor=#333333;" vertex="1" parent="1">
          <mxGeometry x="677" y="452" width="150" height="90" as="geometry" />
        </mxCell>
        <mxCell id="KwvRrebOSRmyI-O3tbyF-23" value="&lt;font face=&quot;Comic Sans MS&quot;&gt;HFM Hours Worked&lt;/font&gt;" style="shape=parallelogram;perimeter=parallelogramPerimeter;whiteSpace=wrap;html=1;fixedSize=1;fillColor=#e1d5e7;strokeColor=#9673a6;" vertex="1" parent="1">
          <mxGeometry x="424" y="320" width="168" height="60" as="geometry" />
        </mxCell>
        <mxCell id="KwvRrebOSRmyI-O3tbyF-24" value="" style="endArrow=classic;html=1;rounded=0;exitX=0.5;exitY=1;exitDx=0;exitDy=0;" edge="1" parent="1" source="KwvRrebOSRmyI-O3tbyF-23" target="KwvRrebOSRmyI-O3tbyF-3">
          <mxGeometry width="50" height="50" relative="1" as="geometry">
            <mxPoint x="390" y="30" as="sourcePoint" />
            <mxPoint x="508" y="10" as="targetPoint" />
            <Array as="points" />
          </mxGeometry>
        </mxCell>
        <mxCell id="KwvRrebOSRmyI-O3tbyF-30" value="&lt;font face=&quot;Comic Sans MS&quot;&gt;Through OII Monthly KPI&lt;/font&gt;" style="edgeLabel;html=1;align=center;verticalAlign=middle;resizable=0;points=[];" vertex="1" connectable="0" parent="KwvRrebOSRmyI-O3tbyF-24">
          <mxGeometry x="-0.1389" y="-2" relative="1" as="geometry">
            <mxPoint as="offset" />
          </mxGeometry>
        </mxCell>
        <mxCell id="KwvRrebOSRmyI-O3tbyF-28" value="&lt;font face=&quot;Comic Sans MS&quot;&gt;KOR TRIR Report / Dashboard&lt;/font&gt;" style="shape=document;whiteSpace=wrap;html=1;boundedLbl=1;fillColor=#d5e8d4;strokeColor=#82b366;" vertex="1" parent="1">
          <mxGeometry x="447" y="720" width="122" height="90" as="geometry" />
        </mxCell>
        <mxCell id="KwvRrebOSRmyI-O3tbyF-31" value="&lt;font face=&quot;Comic Sans MS&quot;&gt;PowerBI&lt;/font&gt;" style="shape=hexagon;perimeter=hexagonPerimeter2;whiteSpace=wrap;html=1;fixedSize=1;fillColor=#dae8fc;strokeColor=#6c8ebf;" vertex="1" parent="1">
          <mxGeometry x="448" y="580" width="120" height="80" as="geometry" />
        </mxCell>
        <mxCell id="KwvRrebOSRmyI-O3tbyF-32" value="" style="endArrow=classic;html=1;rounded=0;exitX=0.5;exitY=1;exitDx=0;exitDy=0;entryX=0.5;entryY=0;entryDx=0;entryDy=0;" edge="1" parent="1" source="KwvRrebOSRmyI-O3tbyF-3" target="KwvRrebOSRmyI-O3tbyF-31">
          <mxGeometry width="50" height="50" relative="1" as="geometry">
            <mxPoint x="390" y="560" as="sourcePoint" />
            <mxPoint x="440" y="510" as="targetPoint" />
          </mxGeometry>
        </mxCell>
        <mxCell id="aQhpQ99pFF3yenjJ-chO-1" value="" style="endArrow=classic;html=1;rounded=0;exitX=0.5;exitY=1;exitDx=0;exitDy=0;shape=link;fillColor=#d5e8d4;strokeColor=#82b366;" edge="1" parent="1" source="KwvRrebOSRmyI-O3tbyF-31" target="KwvRrebOSRmyI-O3tbyF-28">
          <mxGeometry width="50" height="50" relative="1" as="geometry">
            <mxPoint x="510" y="690" as="sourcePoint" />
            <mxPoint x="604" y="690" as="targetPoint" />
          </mxGeometry>
        </mxCell>
      </root>
    </mxGraphModel>
  </diagram>
  <diagram id="zWQ4MRE_zclRe5l0jDIr" name="Page-3">
    <mxGraphModel dx="1386" dy="1920" grid="1" gridSize="10" guides="1" tooltips="1" connect="1" arrows="1" fold="1" page="1" pageScale="1" pageWidth="827" pageHeight="1169" math="0" shadow="0">
      <root>
        <mxCell id="0" />
        <mxCell id="1" parent="0" />
        <mxCell id="m6hsJw1Mqdj-htk0iFVV-1" value="" style="rounded=0;whiteSpace=wrap;html=1;" vertex="1" parent="1">
          <mxGeometry x="380" width="260" height="710" as="geometry" />
        </mxCell>
        <mxCell id="m6hsJw1Mqdj-htk0iFVV-2" value="" style="rounded=0;whiteSpace=wrap;html=1;" vertex="1" parent="1">
          <mxGeometry x="45" width="335" height="710" as="geometry" />
        </mxCell>
        <mxCell id="m6hsJw1Mqdj-htk0iFVV-3" value="Injury/Illness" style="rounded=1;whiteSpace=wrap;html=1;fontFamily=Comic Sans MS;fillColor=#f5f5f5;strokeColor=#666666;fontColor=#333333;" vertex="1" parent="1">
          <mxGeometry x="433" y="452" width="150" height="90" as="geometry" />
        </mxCell>
        <mxCell id="m6hsJw1Mqdj-htk0iFVV-4" value="OII Monthly KPI" style="rounded=1;whiteSpace=wrap;html=1;fontFamily=Comic Sans MS;fillColor=#f5f5f5;strokeColor=#666666;fontColor=#333333;" vertex="1" parent="1">
          <mxGeometry x="433" y="10" width="150" height="90" as="geometry" />
        </mxCell>
        <mxCell id="m6hsJw1Mqdj-htk0iFVV-5" value="OII by Month" style="rounded=1;whiteSpace=wrap;html=1;fontFamily=Comic Sans MS;fillColor=#f5f5f5;strokeColor=#666666;fontColor=#333333;" vertex="1" parent="1">
          <mxGeometry x="120" y="110" width="150" height="90" as="geometry" />
        </mxCell>
        <mxCell id="m6hsJw1Mqdj-htk0iFVV-6" value="OII by Day" style="rounded=1;whiteSpace=wrap;html=1;fontFamily=Comic Sans MS;fillColor=#f5f5f5;strokeColor=#666666;fontColor=#333333;" vertex="1" parent="1">
          <mxGeometry x="120" y="332" width="150" height="100" as="geometry" />
        </mxCell>
        <mxCell id="m6hsJw1Mqdj-htk0iFVV-7" value="&lt;font face=&quot;Comic Sans MS&quot;&gt;Days Away per Record&lt;br&gt;&lt;/font&gt;" style="shape=flexArrow;endArrow=classic;html=1;rounded=0;exitX=0;exitY=0.5;exitDx=0;exitDy=0;entryX=0.5;entryY=1;entryDx=0;entryDy=0;fillColor=#ffe6cc;strokeColor=#d79b00;" edge="1" parent="1" source="m6hsJw1Mqdj-htk0iFVV-14" target="m6hsJw1Mqdj-htk0iFVV-13">
          <mxGeometry width="50" height="50" relative="1" as="geometry">
            <mxPoint x="360" y="500" as="sourcePoint" />
            <mxPoint x="200" y="450" as="targetPoint" />
            <Array as="points">
              <mxPoint x="195" y="500" />
            </Array>
          </mxGeometry>
        </mxCell>
        <mxCell id="m6hsJw1Mqdj-htk0iFVV-8" value="Days Away per Day" style="shape=flexArrow;endArrow=classic;html=1;rounded=0;fontFamily=Comic Sans MS;exitX=0.5;exitY=0;exitDx=0;exitDy=0;fillColor=#ffe6cc;strokeColor=#d79b00;" edge="1" parent="1" source="m6hsJw1Mqdj-htk0iFVV-15">
          <mxGeometry width="50" height="50" relative="1" as="geometry">
            <mxPoint x="200" y="290" as="sourcePoint" />
            <mxPoint x="190" y="220" as="targetPoint" />
          </mxGeometry>
        </mxCell>
        <mxCell id="m6hsJw1Mqdj-htk0iFVV-9" value="Days Away per Month" style="shape=flexArrow;endArrow=classic;html=1;rounded=0;fontFamily=Comic Sans MS;exitX=0.5;exitY=0;exitDx=0;exitDy=0;entryX=0;entryY=0.5;entryDx=0;entryDy=0;fillColor=#ffe6cc;strokeColor=#d79b00;" edge="1" parent="1" source="m6hsJw1Mqdj-htk0iFVV-18" target="m6hsJw1Mqdj-htk0iFVV-17">
          <mxGeometry width="50" height="50" relative="1" as="geometry">
            <mxPoint x="190" y="75" as="sourcePoint" />
            <mxPoint x="390" y="70" as="targetPoint" />
            <Array as="points">
              <mxPoint x="190" y="55" />
            </Array>
          </mxGeometry>
        </mxCell>
        <mxCell id="m6hsJw1Mqdj-htk0iFVV-10" value="" style="shape=flexArrow;endArrow=classic;startArrow=classic;html=1;rounded=0;entryX=0.5;entryY=1;entryDx=0;entryDy=0;exitX=0.5;exitY=0;exitDx=0;exitDy=0;fillColor=#ffe6cc;strokeColor=#d79b00;" edge="1" parent="1" source="m6hsJw1Mqdj-htk0iFVV-19" target="m6hsJw1Mqdj-htk0iFVV-20">
          <mxGeometry width="100" height="100" relative="1" as="geometry">
            <mxPoint x="510" y="430" as="sourcePoint" />
            <mxPoint x="508" y="120" as="targetPoint" />
          </mxGeometry>
        </mxCell>
        <mxCell id="m6hsJw1Mqdj-htk0iFVV-11" value="&lt;font face=&quot;Comic Sans MS&quot;&gt;Relational &lt;br&gt;fields&lt;br&gt;&lt;/font&gt;" style="edgeLabel;html=1;align=center;verticalAlign=middle;resizable=0;points=[];" vertex="1" connectable="0" parent="m6hsJw1Mqdj-htk0iFVV-10">
          <mxGeometry x="0.0385" y="-6" relative="1" as="geometry">
            <mxPoint as="offset" />
          </mxGeometry>
        </mxCell>
        <mxCell id="m6hsJw1Mqdj-htk0iFVV-13" value="&lt;font face=&quot;Comic Sans MS&quot;&gt;Many&lt;/font&gt;" style="ellipse;whiteSpace=wrap;html=1;fillColor=#ffe6cc;strokeColor=#d79b00;" vertex="1" parent="1">
          <mxGeometry x="165" y="432" width="60" height="20" as="geometry" />
        </mxCell>
        <mxCell id="m6hsJw1Mqdj-htk0iFVV-14" value="&lt;font face=&quot;Comic Sans MS&quot;&gt;One&lt;/font&gt;" style="ellipse;whiteSpace=wrap;html=1;fillColor=#ffe6cc;strokeColor=#d79b00;" vertex="1" parent="1">
          <mxGeometry x="373" y="487" width="60" height="20" as="geometry" />
        </mxCell>
        <mxCell id="m6hsJw1Mqdj-htk0iFVV-15" value="&lt;font face=&quot;Comic Sans MS&quot;&gt;Many&lt;/font&gt;" style="ellipse;whiteSpace=wrap;html=1;fillColor=#ffe6cc;strokeColor=#d79b00;" vertex="1" parent="1">
          <mxGeometry x="160" y="312" width="60" height="20" as="geometry" />
        </mxCell>
        <mxCell id="m6hsJw1Mqdj-htk0iFVV-16" value="&lt;font face=&quot;Comic Sans MS&quot;&gt;One&lt;/font&gt;" style="ellipse;whiteSpace=wrap;html=1;fillColor=#ffe6cc;strokeColor=#d79b00;" vertex="1" parent="1">
          <mxGeometry x="160" y="200" width="60" height="20" as="geometry" />
        </mxCell>
        <mxCell id="m6hsJw1Mqdj-htk0iFVV-17" value="&lt;font face=&quot;Comic Sans MS&quot;&gt;One&lt;/font&gt;" style="ellipse;whiteSpace=wrap;html=1;fillColor=#ffe6cc;strokeColor=#d79b00;" vertex="1" parent="1">
          <mxGeometry x="376" y="45" width="57" height="20" as="geometry" />
        </mxCell>
        <mxCell id="m6hsJw1Mqdj-htk0iFVV-18" value="&lt;font face=&quot;Comic Sans MS&quot;&gt;One&lt;/font&gt;" style="ellipse;whiteSpace=wrap;html=1;fillColor=#ffe6cc;strokeColor=#d79b00;" vertex="1" parent="1">
          <mxGeometry x="160" y="90" width="60" height="20" as="geometry" />
        </mxCell>
        <mxCell id="m6hsJw1Mqdj-htk0iFVV-19" value="&lt;font face=&quot;Comic Sans MS&quot;&gt;Many&lt;br&gt;&lt;/font&gt;" style="ellipse;whiteSpace=wrap;html=1;fillColor=#ffe6cc;strokeColor=#d79b00;" vertex="1" parent="1">
          <mxGeometry x="438" y="432" width="60" height="20" as="geometry" />
        </mxCell>
        <mxCell id="m6hsJw1Mqdj-htk0iFVV-20" value="&lt;font face=&quot;Comic Sans MS&quot;&gt;One&lt;/font&gt;" style="ellipse;whiteSpace=wrap;html=1;fillColor=#ffe6cc;strokeColor=#d79b00;" vertex="1" parent="1">
          <mxGeometry x="438" y="100" width="60" height="20" as="geometry" />
        </mxCell>
        <mxCell id="m6hsJw1Mqdj-htk0iFVV-21" value="&lt;font face=&quot;Comic Sans MS&quot;&gt;Child: Parent&amp;nbsp;&lt;/font&gt;" style="endArrow=none;dashed=1;html=1;rounded=0;exitX=1;exitY=0.5;exitDx=0;exitDy=0;entryX=0;entryY=0.5;entryDx=0;entryDy=0;shape=arrow;fillColor=#fff2cc;strokeColor=#d6b656;" edge="1" parent="1" source="m6hsJw1Mqdj-htk0iFVV-3" target="m6hsJw1Mqdj-htk0iFVV-22">
          <mxGeometry width="50" height="50" relative="1" as="geometry">
            <mxPoint x="390" y="380" as="sourcePoint" />
            <mxPoint x="650" y="497" as="targetPoint" />
          </mxGeometry>
        </mxCell>
        <mxCell id="m6hsJw1Mqdj-htk0iFVV-22" value="SK Event" style="rounded=1;whiteSpace=wrap;html=1;fontFamily=Comic Sans MS;fillColor=#f5f5f5;strokeColor=#666666;fontColor=#333333;" vertex="1" parent="1">
          <mxGeometry x="677" y="452" width="150" height="90" as="geometry" />
        </mxCell>
        <mxCell id="m6hsJw1Mqdj-htk0iFVV-23" value="&lt;font face=&quot;Comic Sans MS&quot;&gt;HFM Hours Worked&lt;/font&gt;" style="shape=parallelogram;perimeter=parallelogramPerimeter;whiteSpace=wrap;html=1;fixedSize=1;fillColor=#e1d5e7;strokeColor=#9673a6;" vertex="1" parent="1">
          <mxGeometry x="270" y="-70" width="168" height="60" as="geometry" />
        </mxCell>
        <mxCell id="m6hsJw1Mqdj-htk0iFVV-24" value="" style="endArrow=classic;html=1;rounded=0;exitX=1;exitY=0.5;exitDx=0;exitDy=0;entryX=0.5;entryY=0;entryDx=0;entryDy=0;" edge="1" parent="1" source="m6hsJw1Mqdj-htk0iFVV-23" target="m6hsJw1Mqdj-htk0iFVV-4">
          <mxGeometry width="50" height="50" relative="1" as="geometry">
            <mxPoint x="390" y="30" as="sourcePoint" />
            <mxPoint x="440" y="-20" as="targetPoint" />
            <Array as="points">
              <mxPoint x="510" y="-40" />
            </Array>
          </mxGeometry>
        </mxCell>
        <mxCell id="m6hsJw1Mqdj-htk0iFVV-25" value="&lt;font face=&quot;Comic Sans MS&quot;&gt;Import&lt;/font&gt;" style="edgeLabel;html=1;align=center;verticalAlign=middle;resizable=0;points=[];" vertex="1" connectable="0" parent="m6hsJw1Mqdj-htk0iFVV-24">
          <mxGeometry x="-0.1714" y="2" relative="1" as="geometry">
            <mxPoint as="offset" />
          </mxGeometry>
        </mxCell>
        <mxCell id="m6hsJw1Mqdj-htk0iFVV-28" value="&lt;font face=&quot;Comic Sans MS&quot;&gt;KOR TRIR Report / Dashboard&lt;/font&gt;" style="shape=document;whiteSpace=wrap;html=1;boundedLbl=1;fillColor=#d5e8d4;strokeColor=#82b366;" vertex="1" parent="1">
          <mxGeometry x="677" y="10" width="122" height="90" as="geometry" />
        </mxCell>
        <mxCell id="m6hsJw1Mqdj-htk0iFVV-29" value="" style="endArrow=classic;html=1;rounded=0;entryX=0;entryY=0.5;entryDx=0;entryDy=0;exitX=1;exitY=0.5;exitDx=0;exitDy=0;shape=link;fillColor=#d5e8d4;strokeColor=#82b366;" edge="1" parent="1" source="m6hsJw1Mqdj-htk0iFVV-4" target="m6hsJw1Mqdj-htk0iFVV-28">
          <mxGeometry width="50" height="50" relative="1" as="geometry">
            <mxPoint x="590" y="60" as="sourcePoint" />
            <mxPoint x="640" y="10" as="targetPoint" />
          </mxGeometry>
        </mxCell>
        <mxCell id="m6hsJw1Mqdj-htk0iFVV-32" value="" style="endArrow=classic;html=1;rounded=0;entryX=0.75;entryY=0;entryDx=0;entryDy=0;exitX=0.75;exitY=1;exitDx=0;exitDy=0;" edge="1" parent="1" source="m6hsJw1Mqdj-htk0iFVV-4" target="m6hsJw1Mqdj-htk0iFVV-3">
          <mxGeometry width="50" height="50" relative="1" as="geometry">
            <mxPoint x="710" y="166" as="sourcePoint" />
            <mxPoint x="440" y="130" as="targetPoint" />
          </mxGeometry>
        </mxCell>
        <mxCell id="m6hsJw1Mqdj-htk0iFVV-33" value="&lt;font face=&quot;Comic Sans MS&quot;&gt;Field: &lt;br&gt;Work-Related&lt;/font&gt;" style="edgeLabel;html=1;align=center;verticalAlign=middle;resizable=0;points=[];labelBackgroundColor=#D4E1F5;" vertex="1" connectable="0" parent="m6hsJw1Mqdj-htk0iFVV-32">
          <mxGeometry x="0.0071" y="1" relative="1" as="geometry">
            <mxPoint as="offset" />
          </mxGeometry>
        </mxCell>
        <mxCell id="m6hsJw1Mqdj-htk0iFVV-34" value="" style="endArrow=classic;html=1;rounded=0;exitX=1;exitY=0.25;exitDx=0;exitDy=0;shape=link;fillColor=#d5e8d4;strokeColor=#82b366;entryX=0.5;entryY=1;entryDx=0;entryDy=0;" edge="1" parent="1" source="m6hsJw1Mqdj-htk0iFVV-3" target="m6hsJw1Mqdj-htk0iFVV-36">
          <mxGeometry width="50" height="50" relative="1" as="geometry">
            <mxPoint x="593" y="65" as="sourcePoint" />
            <mxPoint x="640" y="300" as="targetPoint" />
          </mxGeometry>
        </mxCell>
        <mxCell id="m6hsJw1Mqdj-htk0iFVV-35" value="&lt;font face=&quot;Comic Sans MS&quot;&gt;Days Away&lt;/font&gt;" style="edgeLabel;html=1;align=center;verticalAlign=middle;resizable=0;points=[];" vertex="1" connectable="0" parent="m6hsJw1Mqdj-htk0iFVV-34">
          <mxGeometry x="0.1446" y="-1" relative="1" as="geometry">
            <mxPoint as="offset" />
          </mxGeometry>
        </mxCell>
        <mxCell id="m6hsJw1Mqdj-htk0iFVV-36" value="&lt;font face=&quot;Comic Sans MS&quot;&gt;Days Away Source Report&lt;/font&gt;" style="shape=hexagon;perimeter=hexagonPerimeter2;whiteSpace=wrap;html=1;fixedSize=1;fillColor=#dae8fc;strokeColor=#6c8ebf;" vertex="1" parent="1">
          <mxGeometry x="670" y="160" width="120" height="80" as="geometry" />
        </mxCell>
        <mxCell id="m6hsJw1Mqdj-htk0iFVV-37" value="" style="endArrow=classic;html=1;rounded=0;exitX=0.5;exitY=0;exitDx=0;exitDy=0;shape=link;fillColor=#d5e8d4;strokeColor=#82b366;entryX=0.426;entryY=0.989;entryDx=0;entryDy=0;entryPerimeter=0;" edge="1" parent="1" source="m6hsJw1Mqdj-htk0iFVV-36" target="m6hsJw1Mqdj-htk0iFVV-28">
          <mxGeometry width="50" height="50" relative="1" as="geometry">
            <mxPoint x="603" y="75" as="sourcePoint" />
            <mxPoint x="697" y="75" as="targetPoint" />
          </mxGeometry>
        </mxCell>
      </root>
    </mxGraphModel>
  </diagram>
  <diagram id="HZlEEdXyvzd9xp-N694-" name="Page-4">
    <mxGraphModel dx="1386" dy="751" grid="1" gridSize="10" guides="1" tooltips="1" connect="1" arrows="1" fold="1" page="1" pageScale="1" pageWidth="827" pageHeight="1169" math="0" shadow="0">
      <root>
        <mxCell id="0" />
        <mxCell id="1" parent="0" />
        <mxCell id="Powo10DoqhVcVcyCPhtD-1" value="Injury/Illness" style="rounded=1;whiteSpace=wrap;html=1;fontFamily=Comic Sans MS;fillColor=#f5f5f5;strokeColor=#666666;fontColor=#333333;" vertex="1" parent="1">
          <mxGeometry x="433" y="452" width="150" height="90" as="geometry" />
        </mxCell>
        <mxCell id="Powo10DoqhVcVcyCPhtD-2" value="&lt;font face=&quot;Comic Sans MS&quot;&gt;Child: Parent&amp;nbsp;&lt;/font&gt;" style="endArrow=none;dashed=1;html=1;rounded=0;exitX=1;exitY=0.5;exitDx=0;exitDy=0;entryX=0;entryY=0.5;entryDx=0;entryDy=0;shape=arrow;fillColor=#fff2cc;strokeColor=#d6b656;" edge="1" parent="1" source="Powo10DoqhVcVcyCPhtD-1" target="Powo10DoqhVcVcyCPhtD-3">
          <mxGeometry width="50" height="50" relative="1" as="geometry">
            <mxPoint x="390" y="380" as="sourcePoint" />
            <mxPoint x="650" y="497" as="targetPoint" />
          </mxGeometry>
        </mxCell>
        <mxCell id="Powo10DoqhVcVcyCPhtD-3" value="SK Event" style="rounded=1;whiteSpace=wrap;html=1;fontFamily=Comic Sans MS;fillColor=#f5f5f5;strokeColor=#666666;fontColor=#333333;" vertex="1" parent="1">
          <mxGeometry x="677" y="452" width="150" height="90" as="geometry" />
        </mxCell>
        <mxCell id="Powo10DoqhVcVcyCPhtD-4" value="&lt;font face=&quot;Comic Sans MS&quot;&gt;HFM Hours Worked&lt;/font&gt;" style="shape=parallelogram;perimeter=parallelogramPerimeter;whiteSpace=wrap;html=1;fixedSize=1;fillColor=#e1d5e7;strokeColor=#9673a6;" vertex="1" parent="1">
          <mxGeometry x="424" y="320" width="168" height="60" as="geometry" />
        </mxCell>
        <mxCell id="Powo10DoqhVcVcyCPhtD-5" value="" style="endArrow=classic;html=1;rounded=0;exitX=0.5;exitY=1;exitDx=0;exitDy=0;" edge="1" parent="1" source="Powo10DoqhVcVcyCPhtD-4" target="Powo10DoqhVcVcyCPhtD-1">
          <mxGeometry width="50" height="50" relative="1" as="geometry">
            <mxPoint x="390" y="30" as="sourcePoint" />
            <mxPoint x="508" y="10" as="targetPoint" />
            <Array as="points" />
          </mxGeometry>
        </mxCell>
        <mxCell id="Powo10DoqhVcVcyCPhtD-6" value="&lt;font face=&quot;Comic Sans MS&quot;&gt;Through OII Monthly KPI&lt;/font&gt;" style="edgeLabel;html=1;align=center;verticalAlign=middle;resizable=0;points=[];" vertex="1" connectable="0" parent="Powo10DoqhVcVcyCPhtD-5">
          <mxGeometry x="-0.1389" y="-2" relative="1" as="geometry">
            <mxPoint as="offset" />
          </mxGeometry>
        </mxCell>
        <mxCell id="Powo10DoqhVcVcyCPhtD-7" value="&lt;font face=&quot;Comic Sans MS&quot;&gt;KOR TRIR Report / Dashboard&lt;/font&gt;" style="shape=document;whiteSpace=wrap;html=1;boundedLbl=1;fillColor=#d5e8d4;strokeColor=#82b366;" vertex="1" parent="1">
          <mxGeometry x="447" y="720" width="122" height="90" as="geometry" />
        </mxCell>
        <mxCell id="Powo10DoqhVcVcyCPhtD-8" value="&lt;font face=&quot;Comic Sans MS&quot;&gt;Source Reports&lt;/font&gt;" style="shape=hexagon;perimeter=hexagonPerimeter2;whiteSpace=wrap;html=1;fixedSize=1;fillColor=#dae8fc;strokeColor=#6c8ebf;" vertex="1" parent="1">
          <mxGeometry x="448" y="580" width="120" height="80" as="geometry" />
        </mxCell>
        <mxCell id="Powo10DoqhVcVcyCPhtD-9" value="" style="endArrow=classic;html=1;rounded=0;exitX=0.5;exitY=1;exitDx=0;exitDy=0;entryX=0.5;entryY=0;entryDx=0;entryDy=0;" edge="1" parent="1" source="Powo10DoqhVcVcyCPhtD-1" target="Powo10DoqhVcVcyCPhtD-8">
          <mxGeometry width="50" height="50" relative="1" as="geometry">
            <mxPoint x="390" y="560" as="sourcePoint" />
            <mxPoint x="440" y="510" as="targetPoint" />
          </mxGeometry>
        </mxCell>
        <mxCell id="Powo10DoqhVcVcyCPhtD-10" value="" style="endArrow=classic;html=1;rounded=0;exitX=0.5;exitY=1;exitDx=0;exitDy=0;shape=link;fillColor=#d5e8d4;strokeColor=#82b366;" edge="1" parent="1" source="Powo10DoqhVcVcyCPhtD-8" target="Powo10DoqhVcVcyCPhtD-7">
          <mxGeometry width="50" height="50" relative="1" as="geometry">
            <mxPoint x="510" y="690" as="sourcePoint" />
            <mxPoint x="604" y="690" as="targetPoint" />
          </mxGeometry>
        </mxCell>
      </root>
    </mxGraphModel>
  </diagram>
  <diagram id="7KsmKSvmQJ0FFfgOA3yz" name="Page-5">
    <mxGraphModel dx="424" dy="1910" grid="1" gridSize="10" guides="1" tooltips="1" connect="1" arrows="1" fold="1" page="1" pageScale="1" pageWidth="827" pageHeight="1169" math="0" shadow="0">
      <root>
        <mxCell id="0" />
        <mxCell id="1" parent="0" />
        <mxCell id="05iFz6LL_jWFtpztX0w4-1" value="" style="rounded=0;whiteSpace=wrap;html=1;" vertex="1" parent="1">
          <mxGeometry x="380" width="260" height="710" as="geometry" />
        </mxCell>
        <mxCell id="05iFz6LL_jWFtpztX0w4-2" value="" style="rounded=0;whiteSpace=wrap;html=1;" vertex="1" parent="1">
          <mxGeometry x="45" width="335" height="710" as="geometry" />
        </mxCell>
        <mxCell id="05iFz6LL_jWFtpztX0w4-3" value="Injury/Illness" style="rounded=1;whiteSpace=wrap;html=1;fontFamily=Comic Sans MS;fillColor=#f5f5f5;strokeColor=#666666;fontColor=#333333;" vertex="1" parent="1">
          <mxGeometry x="433" y="452" width="150" height="90" as="geometry" />
        </mxCell>
        <mxCell id="05iFz6LL_jWFtpztX0w4-4" value="OII Monthly KPI" style="rounded=1;whiteSpace=wrap;html=1;fontFamily=Comic Sans MS;fillColor=#f5f5f5;strokeColor=#666666;fontColor=#333333;" vertex="1" parent="1">
          <mxGeometry x="433" y="10" width="150" height="90" as="geometry" />
        </mxCell>
        <mxCell id="05iFz6LL_jWFtpztX0w4-5" value="OII by Month" style="rounded=1;whiteSpace=wrap;html=1;fontFamily=Comic Sans MS;fillColor=#f5f5f5;strokeColor=#666666;fontColor=#333333;" vertex="1" parent="1">
          <mxGeometry x="120" y="110" width="150" height="90" as="geometry" />
        </mxCell>
        <mxCell id="05iFz6LL_jWFtpztX0w4-6" value="OII by Day" style="rounded=1;whiteSpace=wrap;html=1;fontFamily=Comic Sans MS;fillColor=#f5f5f5;strokeColor=#666666;fontColor=#333333;" vertex="1" parent="1">
          <mxGeometry x="120" y="332" width="150" height="100" as="geometry" />
        </mxCell>
        <mxCell id="05iFz6LL_jWFtpztX0w4-7" value="&lt;font face=&quot;Comic Sans MS&quot;&gt;Days Away per Record&lt;br&gt;&lt;/font&gt;" style="shape=flexArrow;endArrow=classic;html=1;rounded=0;exitX=0;exitY=0.5;exitDx=0;exitDy=0;entryX=0.5;entryY=1;entryDx=0;entryDy=0;fillColor=#ffe6cc;strokeColor=#d79b00;" edge="1" parent="1" source="05iFz6LL_jWFtpztX0w4-13" target="05iFz6LL_jWFtpztX0w4-12">
          <mxGeometry width="50" height="50" relative="1" as="geometry">
            <mxPoint x="360" y="500" as="sourcePoint" />
            <mxPoint x="200" y="450" as="targetPoint" />
            <Array as="points">
              <mxPoint x="195" y="500" />
            </Array>
          </mxGeometry>
        </mxCell>
        <mxCell id="05iFz6LL_jWFtpztX0w4-8" value="Days Away per Day" style="shape=flexArrow;endArrow=classic;html=1;rounded=0;fontFamily=Comic Sans MS;exitX=0.5;exitY=0;exitDx=0;exitDy=0;fillColor=#ffe6cc;strokeColor=#d79b00;" edge="1" parent="1" source="05iFz6LL_jWFtpztX0w4-14">
          <mxGeometry width="50" height="50" relative="1" as="geometry">
            <mxPoint x="200" y="290" as="sourcePoint" />
            <mxPoint x="190" y="220" as="targetPoint" />
          </mxGeometry>
        </mxCell>
        <mxCell id="05iFz6LL_jWFtpztX0w4-9" value="Days Away per Month" style="shape=flexArrow;endArrow=classic;html=1;rounded=0;fontFamily=Comic Sans MS;exitX=0.5;exitY=0;exitDx=0;exitDy=0;entryX=0;entryY=0.5;entryDx=0;entryDy=0;fillColor=#ffe6cc;strokeColor=#d79b00;" edge="1" parent="1" source="05iFz6LL_jWFtpztX0w4-17" target="05iFz6LL_jWFtpztX0w4-16">
          <mxGeometry width="50" height="50" relative="1" as="geometry">
            <mxPoint x="190" y="75" as="sourcePoint" />
            <mxPoint x="390" y="70" as="targetPoint" />
            <Array as="points">
              <mxPoint x="190" y="55" />
            </Array>
          </mxGeometry>
        </mxCell>
        <mxCell id="05iFz6LL_jWFtpztX0w4-12" value="&lt;font face=&quot;Comic Sans MS&quot;&gt;Many&lt;/font&gt;" style="ellipse;whiteSpace=wrap;html=1;fillColor=#ffe6cc;strokeColor=#d79b00;" vertex="1" parent="1">
          <mxGeometry x="165" y="432" width="60" height="20" as="geometry" />
        </mxCell>
        <mxCell id="05iFz6LL_jWFtpztX0w4-13" value="&lt;font face=&quot;Comic Sans MS&quot;&gt;One&lt;/font&gt;" style="ellipse;whiteSpace=wrap;html=1;fillColor=#ffe6cc;strokeColor=#d79b00;" vertex="1" parent="1">
          <mxGeometry x="373" y="487" width="60" height="20" as="geometry" />
        </mxCell>
        <mxCell id="05iFz6LL_jWFtpztX0w4-14" value="&lt;font face=&quot;Comic Sans MS&quot;&gt;Many&lt;/font&gt;" style="ellipse;whiteSpace=wrap;html=1;fillColor=#ffe6cc;strokeColor=#d79b00;" vertex="1" parent="1">
          <mxGeometry x="160" y="312" width="60" height="20" as="geometry" />
        </mxCell>
        <mxCell id="05iFz6LL_jWFtpztX0w4-15" value="&lt;font face=&quot;Comic Sans MS&quot;&gt;One&lt;/font&gt;" style="ellipse;whiteSpace=wrap;html=1;fillColor=#ffe6cc;strokeColor=#d79b00;" vertex="1" parent="1">
          <mxGeometry x="160" y="200" width="60" height="20" as="geometry" />
        </mxCell>
        <mxCell id="05iFz6LL_jWFtpztX0w4-16" value="&lt;font face=&quot;Comic Sans MS&quot;&gt;One&lt;/font&gt;" style="ellipse;whiteSpace=wrap;html=1;fillColor=#ffe6cc;strokeColor=#d79b00;" vertex="1" parent="1">
          <mxGeometry x="376" y="45" width="57" height="20" as="geometry" />
        </mxCell>
        <mxCell id="05iFz6LL_jWFtpztX0w4-17" value="&lt;font face=&quot;Comic Sans MS&quot;&gt;One&lt;/font&gt;" style="ellipse;whiteSpace=wrap;html=1;fillColor=#ffe6cc;strokeColor=#d79b00;" vertex="1" parent="1">
          <mxGeometry x="160" y="90" width="60" height="20" as="geometry" />
        </mxCell>
        <mxCell id="05iFz6LL_jWFtpztX0w4-18" value="&lt;font face=&quot;Comic Sans MS&quot;&gt;Many&lt;br&gt;&lt;/font&gt;" style="ellipse;whiteSpace=wrap;html=1;fillColor=#ffe6cc;strokeColor=#d79b00;" vertex="1" parent="1">
          <mxGeometry x="478" y="432" width="60" height="20" as="geometry" />
        </mxCell>
        <mxCell id="05iFz6LL_jWFtpztX0w4-19" value="&lt;font face=&quot;Comic Sans MS&quot;&gt;One&lt;/font&gt;" style="ellipse;whiteSpace=wrap;html=1;fillColor=#ffe6cc;strokeColor=#d79b00;" vertex="1" parent="1">
          <mxGeometry x="478" y="100" width="60" height="20" as="geometry" />
        </mxCell>
        <mxCell id="05iFz6LL_jWFtpztX0w4-20" value="&lt;font face=&quot;Comic Sans MS&quot;&gt;Child: Parent&amp;nbsp;&lt;/font&gt;" style="endArrow=none;dashed=1;html=1;rounded=0;exitX=1;exitY=0.5;exitDx=0;exitDy=0;entryX=0;entryY=0.5;entryDx=0;entryDy=0;shape=arrow;fillColor=#fff2cc;strokeColor=#d6b656;" edge="1" parent="1" source="05iFz6LL_jWFtpztX0w4-3" target="05iFz6LL_jWFtpztX0w4-21">
          <mxGeometry width="50" height="50" relative="1" as="geometry">
            <mxPoint x="390" y="380" as="sourcePoint" />
            <mxPoint x="650" y="497" as="targetPoint" />
          </mxGeometry>
        </mxCell>
        <mxCell id="05iFz6LL_jWFtpztX0w4-21" value="SK Event" style="rounded=1;whiteSpace=wrap;html=1;fontFamily=Comic Sans MS;fillColor=#f5f5f5;strokeColor=#666666;fontColor=#333333;" vertex="1" parent="1">
          <mxGeometry x="677" y="452" width="150" height="90" as="geometry" />
        </mxCell>
        <mxCell id="05iFz6LL_jWFtpztX0w4-22" value="&lt;font face=&quot;Comic Sans MS&quot;&gt;HFM Hours Worked&lt;/font&gt;" style="shape=parallelogram;perimeter=parallelogramPerimeter;whiteSpace=wrap;html=1;fixedSize=1;fillColor=#e1d5e7;strokeColor=#9673a6;" vertex="1" parent="1">
          <mxGeometry x="270" y="-70" width="168" height="60" as="geometry" />
        </mxCell>
        <mxCell id="05iFz6LL_jWFtpztX0w4-23" value="" style="endArrow=classic;html=1;rounded=0;exitX=1;exitY=0.5;exitDx=0;exitDy=0;entryX=0.5;entryY=0;entryDx=0;entryDy=0;" edge="1" parent="1" source="05iFz6LL_jWFtpztX0w4-22" target="05iFz6LL_jWFtpztX0w4-4">
          <mxGeometry width="50" height="50" relative="1" as="geometry">
            <mxPoint x="390" y="30" as="sourcePoint" />
            <mxPoint x="440" y="-20" as="targetPoint" />
            <Array as="points">
              <mxPoint x="510" y="-40" />
            </Array>
          </mxGeometry>
        </mxCell>
        <mxCell id="05iFz6LL_jWFtpztX0w4-24" value="&lt;font face=&quot;Comic Sans MS&quot;&gt;Import&lt;/font&gt;" style="edgeLabel;html=1;align=center;verticalAlign=middle;resizable=0;points=[];" vertex="1" connectable="0" parent="05iFz6LL_jWFtpztX0w4-23">
          <mxGeometry x="-0.1714" y="2" relative="1" as="geometry">
            <mxPoint as="offset" />
          </mxGeometry>
        </mxCell>
        <mxCell id="05iFz6LL_jWFtpztX0w4-25" value="&lt;font face=&quot;Comic Sans MS&quot;&gt;KOR TRIR Report / Dashboard&lt;/font&gt;" style="shape=document;whiteSpace=wrap;html=1;boundedLbl=1;fillColor=#d5e8d4;strokeColor=#82b366;" vertex="1" parent="1">
          <mxGeometry x="677" y="10" width="122" height="90" as="geometry" />
        </mxCell>
        <mxCell id="05iFz6LL_jWFtpztX0w4-26" value="" style="endArrow=classic;html=1;rounded=0;entryX=0;entryY=0.5;entryDx=0;entryDy=0;exitX=1;exitY=0.5;exitDx=0;exitDy=0;shape=link;fillColor=#d5e8d4;strokeColor=#82b366;" edge="1" parent="1" source="05iFz6LL_jWFtpztX0w4-4" target="05iFz6LL_jWFtpztX0w4-25">
          <mxGeometry width="50" height="50" relative="1" as="geometry">
            <mxPoint x="590" y="60" as="sourcePoint" />
            <mxPoint x="640" y="10" as="targetPoint" />
          </mxGeometry>
        </mxCell>
        <mxCell id="05iFz6LL_jWFtpztX0w4-29" value="" style="endArrow=classic;html=1;rounded=0;exitX=1;exitY=0.25;exitDx=0;exitDy=0;shape=link;fillColor=#d5e8d4;strokeColor=#82b366;entryX=0.5;entryY=1;entryDx=0;entryDy=0;" edge="1" parent="1" source="05iFz6LL_jWFtpztX0w4-3" target="05iFz6LL_jWFtpztX0w4-31">
          <mxGeometry width="50" height="50" relative="1" as="geometry">
            <mxPoint x="593" y="65" as="sourcePoint" />
            <mxPoint x="640" y="300" as="targetPoint" />
          </mxGeometry>
        </mxCell>
        <mxCell id="05iFz6LL_jWFtpztX0w4-30" value="&lt;font face=&quot;Comic Sans MS&quot;&gt;Days Away&lt;/font&gt;" style="edgeLabel;html=1;align=center;verticalAlign=middle;resizable=0;points=[];" vertex="1" connectable="0" parent="05iFz6LL_jWFtpztX0w4-29">
          <mxGeometry x="0.1446" y="-1" relative="1" as="geometry">
            <mxPoint as="offset" />
          </mxGeometry>
        </mxCell>
        <mxCell id="05iFz6LL_jWFtpztX0w4-31" value="&lt;font face=&quot;Comic Sans MS&quot;&gt;Days Away Source Report&lt;/font&gt;" style="shape=hexagon;perimeter=hexagonPerimeter2;whiteSpace=wrap;html=1;fixedSize=1;fillColor=#dae8fc;strokeColor=#6c8ebf;" vertex="1" parent="1">
          <mxGeometry x="670" y="160" width="120" height="80" as="geometry" />
        </mxCell>
        <mxCell id="05iFz6LL_jWFtpztX0w4-32" value="" style="endArrow=classic;html=1;rounded=0;exitX=0.5;exitY=0;exitDx=0;exitDy=0;shape=link;fillColor=#d5e8d4;strokeColor=#82b366;entryX=0.426;entryY=0.989;entryDx=0;entryDy=0;entryPerimeter=0;" edge="1" parent="1" source="05iFz6LL_jWFtpztX0w4-31" target="05iFz6LL_jWFtpztX0w4-25">
          <mxGeometry width="50" height="50" relative="1" as="geometry">
            <mxPoint x="603" y="75" as="sourcePoint" />
            <mxPoint x="697" y="75" as="targetPoint" />
          </mxGeometry>
        </mxCell>
        <mxCell id="05iFz6LL_jWFtpztX0w4-10" value="" style="shape=flexArrow;endArrow=classic;startArrow=classic;html=1;rounded=0;entryX=0.5;entryY=1;entryDx=0;entryDy=0;exitX=0.5;exitY=0;exitDx=0;exitDy=0;fillColor=#dae8fc;strokeColor=#6c8ebf;labelBackgroundColor=#D4E1F5;" edge="1" parent="1" source="05iFz6LL_jWFtpztX0w4-18" target="05iFz6LL_jWFtpztX0w4-19">
          <mxGeometry width="100" height="100" relative="1" as="geometry">
            <mxPoint x="550" y="430" as="sourcePoint" />
            <mxPoint x="548" y="120" as="targetPoint" />
          </mxGeometry>
        </mxCell>
        <mxCell id="05iFz6LL_jWFtpztX0w4-11" value="&lt;font face=&quot;Comic Sans MS&quot;&gt;Relational field: Is work Related&amp;nbsp;&lt;br&gt;&lt;/font&gt;" style="edgeLabel;html=1;align=center;verticalAlign=middle;resizable=0;points=[];labelBackgroundColor=#D4E1F5;" vertex="1" connectable="0" parent="05iFz6LL_jWFtpztX0w4-10">
          <mxGeometry x="0.0385" y="-6" relative="1" as="geometry">
            <mxPoint as="offset" />
          </mxGeometry>
        </mxCell>
      </root>
    </mxGraphModel>
  </diagram>
</mxfile>
